<?xml version="1.0" encoding="UTF-8"?>
<svg width="391px" height="53px" viewBox="0 0 391 53" version="1.1" xmlns="http://www.w3.org/2000/svg" xmlns:xlink="http://www.w3.org/1999/xlink">
    <!-- Generator: Sketch 64 (93537) - https://sketch.com -->
    <title>Group</title>
    <desc>Created with Sketch.</desc>
    <g id="Page-1" stroke="none" stroke-width="1" fill="none" fill-rule="evenodd">
        <g id="Group" transform="translate(-1.000000, 0.000000)" fill-rule="nonzero">
            <polygon id="Path" fill="#F1404B" points="102.9 22.8 43 22.8 28.9 40.7 62.9 40.7 53.8 52.5 79 52.5 79.9 52.5 90.2 52.5 83.4 47.9"></polygon>
            <polygon id="Path" fill="#F1404B" points="28.1 0.8 28 0.8 8.7 25.7 0.9 30.5 4.9 30.5 12.8 30.5 31 30.5 40.1 18.8 68.9 18.8 82.9 0.8"></polygon>
            <g transform="translate(120.000000, 10.000000)" fill="#252C41">
                <path d="M38.7,11.7 C38.7,13.3 38.4,14.8 37.7,16.1 C37.1,17.4 36.1,18.6 34.9,19.5 C33.7,20.4 32.1,21.2 30.4,21.7 C28.6,22.2 26.6,22.5 24.3,22.5 L9,22.5 L9,30 L-4.26325641e-14,30 L-4.26325641e-14,15 L25.2,15 C26.6,15 27.7,14.7 28.5,14.1 C29.3,13.5 29.7,12.7 29.7,11.6 C29.7,10.6 29.3,9.8 28.5,9.2 C27.7,8.6 26.6,8.3 25.2,8.3 L-4.26325641e-14,8.3 L6,0.7 L24.4,0.7 C26.7,0.7 28.7,1 30.5,1.5 C32.3,2 33.8,2.8 35,3.8 C36.2,4.8 37.2,5.9 37.8,7.3 C38.3,8.6 38.7,10.1 38.7,11.7 Z" id="Path"></path>
                <path d="M86.2,30.1 L74,30.1 L67.5,22.3 L53.6,22.3 L53.6,30.1 L44.5,30.1 L44.5,15.1 L70,15.1 C71.4,15.1 72.6,14.8 73.6,14.2 C74.6,13.6 75,12.8 75,11.8 C75,10.7 74.6,9.8 73.7,9.2 C72.8,8.6 71.6,8.3 70,8.3 L44.5,8.3 L50.4,0.7 L69.2,0.7 C70.9,0.7 72.6,0.9 74.4,1.2 C76.2,1.5 77.8,2.1 79.3,2.8 C80.8,3.6 82,4.7 82.9,6 C83.8,7.3 84.3,9.1 84.3,11.2 C84.3,12.3 84.1,13.4 83.8,14.4 C83.4,15.4 82.9,16.3 82.3,17.2 C81.6,18 80.8,18.7 79.9,19.3 C79,19.9 77.9,20.3 76.7,20.5 C77.2,20.9 77.8,21.4 78.4,21.9 C79,22.5 79.8,23.3 80.9,24.3 L86.2,30.1 Z" id="Path"></path>
                <path d="M110.2,0.3 C117.3,0.3 122.7,1.5 126.3,3.9 C129.9,6.3 131.7,10.2 131.7,15.4 C131.7,20.7 129.9,24.5 126.4,26.9 C122.8,29.3 117.5,30.5 110.3,30.5 C103.1,30.5 97.7,29.3 94.2,26.9 C90.6,24.5 88.9,20.6 88.9,15.4 C88.9,10.2 90.7,6.3 94.2,3.9 C97.7,1.5 103,0.3 110.2,0.3 Z M110.2,22.9 C112.5,22.9 114.4,22.8 116,22.6 C117.6,22.4 118.9,22 119.8,21.5 C120.8,20.9 121.5,20.2 121.9,19.2 C122.3,18.2 122.6,16.9 122.6,15.4 C122.6,13.8 122.4,12.5 121.9,11.6 C121.5,10.6 120.8,9.9 119.8,9.3 C118.8,8.8 117.5,8.4 116,8.2 C114.4,8 112.5,7.9 110.2,7.9 C107.9,7.9 106,8 104.4,8.2 C102.8,8.4 101.5,8.8 100.6,9.3 C99.6,9.8 98.9,10.6 98.5,11.6 C98.1,12.6 97.8,13.9 97.8,15.4 C97.8,17 98,18.3 98.5,19.2 C98.9,20.2 99.6,20.9 100.6,21.5 C101.6,22.1 102.9,22.4 104.4,22.6 C106,22.8 107.9,22.9 110.2,22.9 Z" id="Shape"></path>
                <path d="M180,30.1 L154.3,30.1 C151.8,30.1 149.5,29.8 147.3,29.2 C145.1,28.6 143.3,27.6 141.7,26.4 C140.1,25.2 138.9,23.6 138,21.8 C137.1,20 136.6,17.8 136.6,15.4 C136.6,10.2 138.4,6.3 141.9,3.9 C145.5,1.5 150.8,0.3 158,0.3 C165.1,0.3 170.5,1.5 174.1,3.9 C177.7,6.3 179.5,10.2 179.5,15.4 C179.5,17.3 179.1,18.9 178.2,20.3 L168.5,20.3 C169.2,19.8 169.7,19.1 170,18.3 C170.3,17.5 170.5,16.5 170.5,15.4 C170.5,13.8 170.3,12.5 169.8,11.6 C169.4,10.6 168.7,9.9 167.7,9.3 C166.7,8.8 165.4,8.4 163.9,8.2 C162.3,8 160.4,7.9 158.1,7.9 C155.8,7.9 153.9,8 152.3,8.2 C150.7,8.4 149.4,8.8 148.5,9.3 C147.5,9.8 146.8,10.6 146.4,11.6 C146,12.6 145.7,13.9 145.7,15.4 C145.7,16.8 145.9,17.9 146.3,18.8 C146.7,19.7 147.3,20.4 148,21 C148.7,21.6 149.7,21.9 150.7,22.2 C151.8,22.4 153,22.6 154.3,22.6 L156.2,22.6 C156.8,22.6 157.4,22.6 158,22.6 C158.6,22.6 159.2,22.7 159.7,22.7 C159.3,22.4 158.8,22.1 158.2,21.6 C157.6,21.2 157.1,20.8 156.6,20.4 L152.9,17.5 L164.7,17.5 L180,30.1 Z" id="Path"></path>
                <path d="M223.5,17.3 C223.5,26.2 217.4,30.6 205.2,30.6 C201.7,30.6 198.6,30.3 196.1,29.8 C193.6,29.2 191.5,28.4 189.8,27.3 C188.1,26.2 186.9,24.8 186.2,23.2 C185.4,21.5 185,19.6 185,17.4 L185,0.7 L194,0.7 L194,17.2 C194,18.3 194.1,19.2 194.4,19.9 C194.7,20.6 195.2,21.2 196,21.7 C196.8,22.2 197.9,22.5 199.4,22.7 C200.9,22.9 202.8,23 205.1,23 C206.9,23 208.3,22.9 209.5,22.7 C210.7,22.5 211.6,22.2 212.3,21.7 C213,21.2 213.5,20.6 213.8,19.9 C214.1,19.2 214.3,18.3 214.3,17.3 L214.3,0.7 L223.4,0.7 L223.4,17.3 L223.5,17.3 Z" id="Path"></path>
                <path d="M250.5,0.3 C257.6,0.3 263,1.5 266.6,3.9 C270.2,6.3 272,10.2 272,15.4 C272,20.7 270.2,24.5 266.7,26.9 C263.1,29.3 257.8,30.5 250.6,30.5 C243.4,30.5 238,29.3 234.5,26.9 C230.9,24.5 229.2,20.6 229.2,15.4 C229.2,10.2 231,6.3 234.5,3.9 C238,1.5 243.3,0.3 250.5,0.3 Z M250.5,22.9 C252.8,22.9 254.7,22.8 256.3,22.6 C257.9,22.4 259.2,22 260.1,21.5 C261.1,20.9 261.8,20.2 262.2,19.2 C262.6,18.2 262.9,16.9 262.9,15.4 C262.9,13.8 262.7,12.5 262.2,11.6 C261.8,10.6 261.1,9.9 260.1,9.3 C259.1,8.8 257.8,8.4 256.3,8.2 C254.7,8 252.8,7.9 250.5,7.9 C248.2,7.9 246.3,8 244.7,8.2 C243.1,8.4 241.8,8.8 240.9,9.3 C239.9,9.8 239.2,10.6 238.8,11.6 C238.4,12.6 238.1,13.9 238.1,15.4 C238.1,17 238.3,18.3 238.8,19.2 C239.2,20.2 239.9,20.9 240.9,21.5 C241.9,22.1 243.2,22.4 244.7,22.6 C246.3,22.8 248.2,22.9 250.5,22.9 Z" id="Shape"></path>
            </g>
        </g>
    </g>
</svg>